<?xml version="1.0" encoding="UTF-8" standalone="no"?>
<!DOCTYPE svg PUBLIC "-//W3C//DTD SVG 1.1//EN" "http://www.w3.org/Graphics/SVG/1.1/DTD/svg11.dtd">
<svg width="100%" height="100%" viewBox="0 0 30 30" version="1.1" xmlns="http://www.w3.org/2000/svg" xmlns:xlink="http://www.w3.org/1999/xlink" xml:space="preserve" xmlns:serif="http://www.serif.com/" style="fill-rule:evenodd;clip-rule:evenodd;stroke-linejoin:round;stroke-miterlimit:2;">
    <g transform="matrix(1,0,0,1,-1328.03,-1317.93)">
        <g transform="matrix(4.39288,0,0,4.16667,1220.96,819.227)">
            <g id="email" transform="matrix(0.276647,0,0,0.292425,24.372,119.684)">
                <path d="M12,0.02C5.373,0.02 0,5.393 0,12.02C0,18.647 5.373,24.02 12,24.02C18.627,24.02 24,18.647 24,12.02C24,5.393 18.627,0.02 12,0.02ZM18.99,7L12,12.666L5.009,7L18.99,7ZM19,17L5,17L5,8.495L12,14.168L19,8.496L19,17Z" style="fill:rgb(241,178,28);fill-rule:nonzero;"/>
            </g>
        </g>
    </g>
</svg>
