<?xml version="1.0" encoding="UTF-8" standalone="no"?>
<!DOCTYPE svg PUBLIC "-//W3C//DTD SVG 1.1//EN" "http://www.w3.org/Graphics/SVG/1.1/DTD/svg11.dtd">
<svg width="100%" height="100%" viewBox="0 0 30 30" version="1.1" xmlns="http://www.w3.org/2000/svg" xmlns:xlink="http://www.w3.org/1999/xlink" xml:space="preserve" xmlns:serif="http://www.serif.com/" style="fill-rule:evenodd;clip-rule:evenodd;stroke-linejoin:round;stroke-miterlimit:2;">
    <g transform="matrix(1,0,0,1,-2078.58,-1317.93)">
        <g transform="matrix(4.39288,0,0,4.16667,1220.96,819.227)">
            <g id="facebook" transform="matrix(0.276647,0,0,0.291667,195.229,119.69)">
                <path d="M12,0C5.373,0 0,5.373 0,12C0,18.627 5.373,24 12,24C18.627,24 24,18.627 24,12C24,5.373 18.627,0 12,0ZM15,8L13.65,8C13.112,8 13,8.221 13,8.778L13,10L15,10L14.791,12L13,12L13,19L10,19L10,12L8,12L8,10L10,10L10,7.692C10,5.923 10.931,5 13.029,5L15,5L15,8Z" style="fill:rgb(241,178,28);fill-rule:nonzero;"/>
            </g>
        </g>
    </g>
</svg>
