<?xml version="1.0" encoding="UTF-8" standalone="no"?>
<!DOCTYPE svg PUBLIC "-//W3C//DTD SVG 1.1//EN" "http://www.w3.org/Graphics/SVG/1.1/DTD/svg11.dtd">
<svg width="100%" height="100%" viewBox="0 0 30 30" version="1.1" xmlns="http://www.w3.org/2000/svg" xmlns:xlink="http://www.w3.org/1999/xlink" xml:space="preserve" xmlns:serif="http://www.serif.com/" style="fill-rule:evenodd;clip-rule:evenodd;stroke-linejoin:round;stroke-miterlimit:2;">
    <g transform="matrix(1,0,0,1,-1328.03,-1357.16)">
        <g transform="matrix(4.39288,0,0,4.16667,1220.96,819.227)">
            <g transform="matrix(0.0221318,0,0,0.0233333,27.6918,132.603)">
                <g transform="matrix(1,0,0,1,-150,-150)">
                    <g>
                        <g>
                            <g>
                                <path d="M149.996,0C67.157,0 0.001,67.161 0.001,149.997C0.001,232.833 67.157,300 149.996,300C232.835,300 299.999,232.837 299.999,149.997C299.999,67.157 232.835,0 149.996,0ZM225.363,123.302L188.677,159.988C184.698,163.967 179.408,166.158 173.782,166.158C168.157,166.158 162.866,163.966 158.887,159.99L157.45,158.553L153.544,162.459L154.978,163.893C163.192,172.107 163.192,185.472 154.978,193.686L118.297,230.372C114.318,234.351 109.028,236.542 103.399,236.542C97.771,236.542 92.48,234.35 88.499,230.369L74.634,216.5C66.42,208.291 66.42,194.927 74.631,186.71L111.32,150.026C115.299,146.047 120.589,143.856 126.218,143.856C131.847,143.856 137.134,146.048 141.116,150.026L142.548,151.458L146.454,147.552L145.022,146.12C136.808,137.909 136.808,124.544 145.017,116.33L181.706,79.644C185.687,75.663 190.978,73.471 196.604,73.471C202.23,73.471 207.52,75.663 211.502,79.641L225.37,93.514C233.577,101.723 233.577,115.09 225.363,123.302Z" style="fill:rgb(241,178,28);fill-rule:nonzero;"/>
                                <path d="M142.539,173.459L135.446,180.552L124.444,169.553L131.537,162.46L130.105,161.028C129.065,159.991 127.683,159.417 126.215,159.417C124.744,159.417 123.362,159.99 122.322,161.028L85.636,197.709C83.491,199.856 83.491,203.347 85.636,205.492L99.506,219.365C101.589,221.448 105.214,221.445 107.292,219.368L143.973,182.682C146.121,180.535 146.121,177.041 143.973,174.893L142.539,173.459Z" style="fill:rgb(241,178,28);fill-rule:nonzero;"/>
                                <path d="M200.493,90.643C199.453,89.603 198.068,89.03 196.597,89.03C195.126,89.03 193.741,89.603 192.701,90.646L156.015,127.33C153.873,129.477 153.873,132.968 156.018,135.116L157.452,136.548L168.332,125.665L179.334,136.667L168.454,147.55L169.888,148.984C171.971,151.061 175.591,151.064 177.674,148.981L214.358,112.3C216.503,110.153 216.503,106.662 214.358,104.514L200.493,90.643Z" style="fill:rgb(241,178,28);fill-rule:nonzero;"/>
                            </g>
                        </g>
                    </g>
                </g>
            </g>
        </g>
    </g>
</svg>
