<?xml version="1.0" encoding="UTF-8" standalone="no"?>
<!DOCTYPE svg PUBLIC "-//W3C//DTD SVG 1.1//EN" "http://www.w3.org/Graphics/SVG/1.1/DTD/svg11.dtd">
<svg width="100%" height="100%" viewBox="0 0 244 274" version="1.1" xmlns="http://www.w3.org/2000/svg" xmlns:xlink="http://www.w3.org/1999/xlink" xml:space="preserve" xmlns:serif="http://www.serif.com/" style="fill-rule:evenodd;clip-rule:evenodd;stroke-linejoin:round;stroke-miterlimit:2;">
    <g transform="matrix(4.16667,0,0,4.16667,213.415,196.047)">
        <path d="M0,-25.859L-14.924,-41.647C-16.713,-43.539 -19.157,-44.536 -21.634,-44.536C-23.12,-44.536 -24.618,-44.177 -25.995,-43.439C-29.667,-41.468 -31.563,-37.282 -30.622,-33.222L-27.063,-17.866C-29.087,-16.952 -30.823,-16.059 -32.224,-15.28C-32.913,-15.443 -33.62,-15.549 -34.343,-15.549C-34.88,-15.549 -35.424,-15.502 -35.968,-15.404C-38.088,-15.026 -40.093,-14.264 -41.859,-13.18C-43.562,-12.157 -45.088,-10.88 -46.366,-9.422C-47.983,-7.594 -49.17,-5.487 -49.913,-3.096C-50.36,-1.619 -50.58,-0.09 -50.567,1.45C-50.569,2.752 -50.418,4.055 -50.112,5.343C-49.427,8.199 -47.977,10.816 -45.915,12.918C-44.175,14.688 -42.128,16.061 -39.874,16.979C-37.15,18.106 -34.175,18.677 -31.033,18.677C-30.468,18.677 -29.905,18.659 -29.346,18.625C-29.301,18.622 -29.256,18.619 -29.211,18.615C-26.186,18.386 -23.23,17.69 -20.458,16.562C-17.907,15.538 -15.485,14.206 -13.3,12.632C-11.882,11.623 -10.551,10.498 -9.31,9.298C-8.91,9.351 -8.51,9.387 -8.112,9.387C-5.09,9.387 -2.159,7.898 -0.404,5.24L3.796,-1.124L3.879,-1.25C3.925,-1.224 3.975,-1.2 4.022,-1.174C13.363,-17.576 0,-25.859 0,-25.859" style="fill:rgb(198,146,44);fill-rule:nonzero;"/>
    </g>
    <g transform="matrix(4.16667,0,0,4.16667,210.698,185.567)">
        <path d="M0,-25.859L-14.924,-41.647C-16.713,-43.539 -19.157,-44.536 -21.634,-44.536C-23.12,-44.536 -24.618,-44.177 -25.995,-43.439C-29.667,-41.468 -31.563,-37.282 -30.622,-33.222L-27.063,-17.866C-29.087,-16.952 -30.823,-16.059 -32.224,-15.28C-32.913,-15.443 -33.62,-15.549 -34.343,-15.549C-34.88,-15.549 -35.424,-15.502 -35.968,-15.404C-38.088,-15.026 -40.093,-14.264 -41.859,-13.18C-43.562,-12.157 -45.088,-10.88 -46.366,-9.422C-47.983,-7.594 -49.17,-5.487 -49.913,-3.096C-50.36,-1.619 -50.58,-0.09 -50.567,1.45C-50.569,2.752 -50.418,4.055 -50.112,5.343C-49.427,8.199 -47.977,10.816 -45.915,12.918C-44.175,14.688 -42.128,16.061 -39.874,16.979C-37.15,18.106 -34.175,18.677 -31.033,18.677C-30.468,18.677 -29.905,18.659 -29.346,18.625C-29.301,18.622 -29.256,18.619 -29.211,18.615C-26.186,18.386 -23.23,17.69 -20.458,16.562C-17.907,15.538 -15.485,14.206 -13.3,12.632C-11.882,11.623 -10.551,10.498 -9.31,9.298C-8.91,9.351 -8.51,9.387 -8.112,9.387C-5.09,9.387 -2.159,7.898 -0.404,5.24L3.796,-1.124L3.879,-1.25C3.925,-1.224 3.975,-1.2 4.022,-1.174C13.363,-17.576 0,-25.859 0,-25.859" style="fill:white;fill-rule:nonzero;"/>
    </g>
    <g transform="matrix(-0.960106,4.05454,4.05454,0.960106,149.99,81.6388)">
        <path d="M23.233,-13.686C23.233,-13.686 9.888,-2.077 5.654,17.15L23.233,10.717L10.959,11.021C10.959,11.021 16.816,-5.578 23.233,-13.686" style="fill:rgb(241,178,28);fill-rule:nonzero;"/>
    </g>
    <g transform="matrix(4.16667,0,0,4.16667,191.333,32.5138)">
        <path d="M0,20.003L-18.907,0L-15.007,16.833L0,20.003Z" style="fill:rgb(241,178,28);fill-rule:nonzero;"/>
    </g>
    <g transform="matrix(4.16667,0,0,4.16667,57.4714,226.792)">
        <path d="M0,-16.49C-1.437,-15.287 -2.582,-13.774 -3.35,-12.064C-3.687,-11.332 -3.885,-10.544 -3.933,-9.739C-3.946,-9.403 -3.914,-9.067 -3.838,-8.739C-3.758,-8.395 -3.644,-8.06 -3.498,-7.739C-3.231,-7.158 -2.826,-6.651 -2.318,-6.264C-1.761,-5.856 -1.138,-5.546 -0.478,-5.346C1.069,-4.902 2.683,-4.745 4.286,-4.881C7.639,-5.131 11.096,-6.269 14.414,-7.821C16.101,-8.617 17.742,-9.506 19.33,-10.484C20.98,-11.502 22.577,-12.604 24.113,-13.787C23.301,-11.936 22.204,-10.223 20.863,-8.711C19.512,-7.171 17.986,-5.794 16.317,-4.606C14.626,-3.389 12.794,-2.382 10.861,-1.606C8.867,-0.795 6.758,-0.299 4.611,-0.135C2.405,0 0.133,-0.22 -2.08,-1.135C-3.245,-1.611 -4.301,-2.319 -5.183,-3.216C-6.105,-4.155 -6.754,-5.327 -7.061,-6.606C-7.204,-7.209 -7.274,-7.827 -7.268,-8.446C-7.279,-9.093 -7.188,-9.738 -7.001,-10.357C-6.656,-11.465 -6.08,-12.488 -5.311,-13.357C-4.607,-14.16 -3.783,-14.849 -2.868,-15.4C-1.988,-15.938 -1.015,-16.308 0,-16.49" style="fill:rgb(241,178,28);fill-rule:nonzero;"/>
    </g>
</svg>
